<svg width="153" height="153" viewBox="0 0 153 153" fill="none" xmlns="http://www.w3.org/2000/svg">
  <g clip-path="url(#clip0_791_7810)">
    <path
      d="M76.5001 12.75C111.709 12.75 140.25 41.2909 140.25 76.5C140.25 111.709 111.709 140.25 76.5001 140.25C65.6495 140.266 54.976 137.5 45.4984 132.217L43.5541 131.083L24.2251 136.769C23.1732 137.079 22.0596 137.115 20.9898 136.874C19.9201 136.633 18.9296 136.123 18.1123 135.392C17.295 134.661 16.678 133.733 16.3197 132.697C15.9614 131.66 15.8738 130.55 16.0651 129.47L16.2308 128.775L21.9173 109.446C15.9054 99.5093 12.7346 88.1138 12.7501 76.5C12.7501 41.2909 41.2909 12.75 76.5001 12.75ZM76.5001 25.5C67.3687 25.4983 58.4043 27.9484 50.5432 32.5942C42.682 37.24 36.2123 43.9113 31.8098 51.9113C27.4073 59.9112 25.2334 68.9465 25.5151 78.0735C25.7968 87.2006 28.5239 96.0845 33.4114 103.798C34.6737 105.787 35.2156 108.235 34.7884 110.664L34.5398 111.703L31.7284 121.272L41.2973 118.46C44.0577 117.644 46.9264 118.142 49.2023 119.589C55.8854 123.82 63.4612 126.439 71.3309 127.239C79.2005 128.038 87.1483 126.996 94.5458 124.195C101.943 121.394 108.588 116.91 113.954 111.099C119.321 105.287 123.262 98.3074 125.466 90.7105C127.67 83.1136 128.076 75.1082 126.654 67.327C125.231 59.5459 122.018 52.2023 117.268 45.8769C112.518 39.5515 106.363 34.4176 99.287 30.881C92.2114 27.3445 84.4102 25.5023 76.5001 25.5ZM58.0253 45.798C58.7311 45.4924 59.5043 45.3757 60.2689 45.4595C61.0334 45.5434 61.763 45.8248 62.3858 46.2761C65.5988 48.6221 68.1488 51.7714 70.3418 54.8441L72.4264 57.8659L73.4018 59.3003C73.9646 60.1231 74.2408 61.1084 74.1878 62.1039C74.1348 63.0994 73.7555 64.0498 73.1086 64.8083L72.6304 65.2927L66.7399 69.666C66.4564 69.8713 66.2569 70.1723 66.1784 70.5134C66.0999 70.8545 66.1476 71.2125 66.3128 71.5211C67.6516 73.9436 70.0167 77.5583 72.7324 80.274C75.4546 82.9898 79.2349 85.5143 81.8232 86.9996C82.3842 87.3184 83.0599 87.2164 83.5189 86.802L83.7612 86.5151L87.5926 80.682C88.2959 79.745 89.3347 79.1167 90.4911 78.9289C91.6475 78.7412 92.8318 79.0084 93.7954 79.6748L97.2571 82.0909C100.7 84.5452 104.008 87.1845 106.628 90.5314C107.116 91.1591 107.425 91.9062 107.525 92.6946C107.625 93.4829 107.511 94.2836 107.196 95.013C104.671 100.904 98.2771 105.921 91.6343 105.678L90.6207 105.615L89.4031 105.5C89.1732 105.473 88.9437 105.443 88.7146 105.411L87.1973 105.156C81.3068 104.046 71.8654 100.706 62.0798 90.9266C52.3006 81.141 48.9601 71.6996 47.8508 65.8091L47.5958 64.2919L47.4364 62.9659L47.3536 61.8502C47.3435 61.691 47.335 61.5316 47.3281 61.3721C47.0858 54.7166 52.1284 48.3225 58.0253 45.798Z"
      fill="white" />
  </g>
  <defs>
    <clipPath id="clip0_791_7810">
      <rect width="153" height="153" fill="white" />
    </clipPath>
  </defs>
</svg>