<svg width="54" height="54" viewBox="0 0 54 54" fill="none" xmlns="http://www.w3.org/2000/svg">
  <circle cx="27" cy="27" r="27" fill="#40C351" />
  <path
    d="M27.5619 12.0833C19.1444 12.0833 12.284 18.9438 12.284 27.3613C12.284 30.0592 12.9931 32.68 14.319 34.9925L12.1606 42.9167L20.2544 40.7892C22.4898 42.0071 25.0027 42.6546 27.5619 42.6546C35.9794 42.6546 42.8398 35.7942 42.8398 27.3767C42.8398 23.2913 41.2519 19.4525 38.369 16.5696C36.9554 15.1422 35.2718 14.0104 33.4164 13.2401C31.561 12.4699 29.5708 12.0767 27.5619 12.0833ZM27.5773 14.6579C30.969 14.6579 34.1448 15.9838 36.5498 18.3888C37.7298 19.5689 38.6653 20.9703 39.3029 22.5126C39.9404 24.0549 40.2675 25.7078 40.2652 27.3767C40.2652 34.3758 34.5611 40.0646 27.5619 40.0646C25.2802 40.0646 23.0448 39.4633 21.1023 38.2917L20.6398 38.0296L15.8298 39.2938L17.1094 34.6071L16.8011 34.1138C15.5285 32.0917 14.855 29.7504 14.8586 27.3613C14.874 20.3621 20.5627 14.6579 27.5773 14.6579ZM22.1506 20.3004C21.904 20.3004 21.4877 20.3929 21.1331 20.7783C20.794 21.1638 19.7919 22.1042 19.7919 23.9696C19.7919 25.8504 21.164 27.6542 21.3336 27.9163C21.5494 28.1783 24.0469 32.0325 27.8856 33.6667C28.7952 34.0829 29.5044 34.3142 30.0594 34.4838C30.969 34.7767 31.8015 34.7304 32.4644 34.6379C33.2044 34.53 34.7152 33.7129 35.039 32.8188C35.3627 31.9246 35.3627 31.1692 35.2702 30.9996C35.1623 30.8454 34.9156 30.7529 34.5302 30.5833C34.1448 30.3675 32.264 29.4425 31.9248 29.3192C31.5702 29.1958 31.3544 29.1342 31.0615 29.5042C30.8148 29.8896 30.0748 30.7529 29.859 30.9996C29.6277 31.2617 29.4119 31.2925 29.0419 31.1075C28.6411 30.9071 27.4077 30.5063 25.9586 29.2113C24.8177 28.1938 24.0623 26.945 23.8311 26.5596C23.6461 26.1896 23.8156 25.9583 24.0006 25.7888C24.1702 25.6192 24.4169 25.3417 24.5711 25.1104C24.7715 24.8946 24.8331 24.725 24.9565 24.4783C25.0798 24.2163 25.0181 24.0004 24.9256 23.8154C24.8331 23.6458 24.0623 21.7342 23.7386 20.9788C23.4302 20.2388 23.1219 20.3313 22.8752 20.3158C22.6594 20.3158 22.4127 20.3004 22.1506 20.3004Z"
    fill="white" />
</svg>
  