<svg width="500" height="86" viewBox="0 0 500 86" fill="none" xmlns="http://www.w3.org/2000/svg">
<path d="M15.5 52.0806L20.7771 80.2901L43.2393 85.4291L37.989 52.201L15.5 52.0806ZM96.1319 50.5513L64.3563 0.165496L33.4463 0L65.4167 50.3868L96.1319 50.5513ZM0 50.0376L32.0441 50.2088L47.6789 25.9947L31.7421 0.877845L0 50.0376ZM55.5739 85.4948L78.0897 80.5966L83.6679 52.4452L61.1789 52.3248L55.5739 85.4948Z" fill="#EC1C24"/>
<path d="M266.319 17.9027L265.514 13.8344L253.104 13.7682L252.906 50.9451L266.744 51.019L266.847 31.6781C266.873 26.7862 269.817 24.6957 273.277 24.7144C275.609 24.7269 277.261 25.1864 279.507 27.0049L285.126 17.0253C282.733 14.4542 279.132 13.005 275.37 12.9849C271.761 12.9652 268.293 14.4513 266.319 17.9027ZM194.904 12.5546C184.826 12.5008 174.189 18.4639 174.117 32.0106C174.044 45.5562 183.941 51.4052 195.673 51.4675C202.066 51.5016 208.169 49.5022 212.628 45.3869L205.9 37.7497C203.484 39.5418 200.394 40.7305 196.333 40.7084C193.324 40.6921 189.045 39.2391 188.085 35.9235L214.031 36.0621C217.269 21.4035 208.065 12.6246 194.904 12.5546ZM188.208 27.0428C189.143 20.9521 201.325 21.2438 201.67 27.1148L188.208 27.0428ZM399.131 18.5373C397.192 15.5167 393.515 13.691 388.252 13.6627C377.421 13.6046 370.156 21.9955 370.097 32.9829C370.039 43.8207 376.089 51.6038 386.992 52.3396C391.127 52.5871 396.097 51.3346 399.275 47.7398L399.855 51.7309L412.641 51.7995L412.839 14.6225L399.828 14.553L399.131 18.5373ZM391.262 41.2236C387.125 41.2015 383.833 38.2495 383.86 33.0563C383.888 27.8636 387.213 24.8712 391.349 24.8933C396.238 24.9197 399.004 28.1696 398.977 33.1374C398.954 37.5021 395.926 41.2486 391.262 41.2236ZM154.371 12.4121C149.257 12.3848 145.112 13.868 142.008 17.6897C140.146 14.2177 136.546 12.4677 132.785 12.3718C128.951 12.2759 124.88 13.8354 122.532 17.058L121.576 13.0645L109.918 13.0021L109.72 50.1791L123.483 50.2525L123.592 29.8577C123.689 25.7947 126.18 23.9272 128.512 23.9397C130.993 23.9531 132.415 25.3893 132.392 29.6797L132.282 50.2999L145.895 50.3729L146.004 29.9037C146.025 25.8388 148.516 24.2721 150.847 24.2846C152.878 24.2956 154.675 25.8848 154.653 29.7987L154.543 50.4189L168.381 50.4928L168.492 29.7973C168.558 17.4556 162.418 12.4553 154.371 12.4121ZM241.157 40.3467C239.051 40.3357 237.553 39.348 237.492 36.714L237.557 24.523L245.98 24.5681L246.037 13.9558L237.69 13.9111L237.747 3.15012L223.976 4.58106L223.926 13.8373L217.984 13.8056L217.928 24.4179L223.87 24.4496L223.805 36.6406C223.516 48.3039 230.117 51.7256 237.487 51.7649C241.322 51.7856 245.012 51.1279 248.179 49.3396L245.225 39.088C244.094 39.8349 242.511 40.3539 241.157 40.3467ZM353.512 40.7209C348.248 40.6926 345.484 37.0661 345.506 33.0026C345.531 28.3361 348.409 24.5129 353.673 24.5412C356.156 24.5547 358.257 25.3941 360.051 27.2846L367.465 19.348C363.575 15.4131 358.245 13.5029 352.906 13.4741C342.451 13.418 332.041 19.3082 331.968 32.8548C331.894 46.7766 342.093 52.1751 352.924 52.2331C358.49 52.2629 363.841 49.9589 368.3 45.9932L360.448 37.6729C358.557 39.6943 356.069 40.7343 353.512 40.7209ZM486.989 15.0192L486.291 19.0036C484.352 15.983 480.676 14.1572 475.412 14.1289C464.581 14.0709 457.317 22.4617 457.258 33.4492C457.2 44.287 463.25 52.07 474.152 52.8059C478.288 53.0534 483.257 51.8009 486.436 48.2061L487.016 52.1971L499.801 52.2657L500 15.0888L486.989 15.0192ZM478.423 41.6899C474.286 41.6678 470.993 38.7158 471.021 33.523C471.049 28.3303 474.373 25.338 478.51 25.3601C483.399 25.386 486.164 28.6364 486.138 33.6041C486.115 37.9679 483.087 41.7148 478.423 41.6899ZM436.457 27.995C434.2 27.9072 433.68 26.851 433.683 26.1736C433.691 24.819 435.047 24.3743 437.002 24.3848C440.011 24.3254 444.292 25.4023 446.316 26.6931L452.226 18.4462C448.631 15.7167 443.075 13.8814 437.058 13.8493C428.334 13.8027 419.893 16.9932 419.845 25.9486C419.797 34.9799 428.506 37.9607 435.725 38.226C438.431 38.4658 439.63 39.0741 439.624 40.2786C439.618 41.4822 438.336 42.0784 435.854 42.065C432.847 41.8981 428.336 41.5728 422.716 37.8557L418.149 47.9154C422.345 51.0233 429.629 52.8687 436.098 52.9033C445.048 52.9512 453.414 49.5339 453.462 40.353C453.516 30.4942 444.202 28.2617 436.457 27.995ZM306.805 13.2271C296.051 13.1695 285.566 18.8338 285.492 32.6059C285.42 46.1515 295.917 52.0777 306.597 52.1348C317.051 52.1909 327.837 46.378 327.91 32.8328C327.983 19.2861 317.785 13.2861 306.805 13.2271ZM306.657 40.7713C301.77 40.7454 299.007 36.9673 299.03 32.6783C299.053 28.3884 301.856 24.5647 306.744 24.5911C311.633 24.617 314.395 28.4704 314.372 32.7603C314.348 37.2762 311.321 40.7962 306.657 40.7713Z" fill="#EC1C24"/>
<path d="M232.649 72.1856C231.845 72.1544 231.659 71.7779 231.661 71.5361C231.663 71.0535 232.147 70.8952 232.843 70.8991C233.916 70.8784 235.442 71.2622 236.163 71.7213L238.269 68.7827C236.988 67.8098 235.008 67.156 232.863 67.1445C229.754 67.1277 226.746 68.2646 226.729 71.4565C226.712 74.6752 229.816 75.7378 232.388 75.8313C233.353 75.9167 233.78 76.134 233.777 76.5624C233.775 76.9917 233.318 77.2042 232.434 77.1994C231.362 77.1399 229.754 77.0238 227.751 75.6989L226.124 79.2842C227.619 80.3913 230.215 81.0485 232.52 81.061C235.71 81.0782 238.691 79.8608 238.709 76.5883C238.728 73.0759 235.409 72.2801 232.649 72.1856ZM195.91 66.9469C194.516 66.9123 192.852 67.3858 191.719 68.6939L191.513 67.2448L187.144 67.2212L187.073 80.47L191.951 80.4959L191.988 73.523C191.997 71.7798 193.1 70.9806 194.28 70.9873C195.191 70.9921 196.126 71.5606 196.118 73.1963L196.078 80.5184L201.01 80.5448L201.049 73.1968C201.074 68.4757 198.697 66.9886 195.91 66.9469ZM154.105 66.7502C150.272 66.7296 146.536 68.7476 146.51 73.6554C146.484 78.4826 150.225 80.5952 154.031 80.6153C157.757 80.6355 161.6 78.5632 161.626 73.736C161.652 68.9088 158.018 66.7708 154.105 66.7502ZM154.052 76.5652C152.31 76.5561 151.326 75.2096 151.334 73.6813C151.342 72.153 152.341 70.7902 154.083 70.7993C155.825 70.8084 156.809 72.1818 156.801 73.7101C156.793 75.32 155.714 76.5744 154.052 76.5652ZM117.286 76.2616C115.41 76.2515 114.426 74.9592 114.433 73.511C114.443 71.8479 115.468 70.4861 117.344 70.4961C118.229 70.5009 118.978 70.7993 119.617 71.4733L122.259 68.645C120.873 67.2433 118.973 66.5626 117.071 66.5525C113.345 66.5324 109.635 68.6316 109.609 73.4587C109.583 78.4198 113.218 80.3438 117.077 80.3644C119.061 80.375 120.968 79.5538 122.557 78.141L119.758 75.1756C119.084 75.8961 118.198 76.2664 117.286 76.2616ZM271.453 77.1663C270.703 77.1625 270.169 76.8109 270.146 75.8721L270.169 71.5275L273.171 71.5433L273.192 67.7623L270.216 67.7465L270.237 63.9113L265.329 64.4217L265.311 67.7206L263.194 67.7091L263.174 71.4901L265.291 71.5016L265.268 75.8462C265.166 80.0032 267.518 81.2226 270.145 81.2365C271.511 81.2437 272.826 81.0087 273.955 80.3712L272.902 76.7183C272.499 76.9845 271.936 77.1687 271.453 77.1663ZM495.076 68.868L494.827 70.2889C494.137 69.2125 492.827 68.5615 490.951 68.5519C487.091 68.5313 484.502 71.5212 484.481 75.4365C484.461 79.2986 486.617 82.0726 490.502 82.3346C491.975 82.4233 493.746 81.9767 494.879 80.6954L495.086 82.1177L499.642 82.1422L499.713 68.8935L495.076 68.868ZM492.024 78.3727C490.55 78.3651 489.376 77.3126 489.386 75.4619C489.396 73.6113 490.581 72.5449 492.055 72.5526C493.797 72.5617 494.783 73.7211 494.774 75.4907C494.766 77.0464 493.686 78.3814 492.024 78.3727ZM454.336 70.0985L454.049 68.6488L449.627 68.6253L449.556 81.874L454.487 81.9004L454.524 75.0077C454.534 73.2645 455.583 72.519 456.815 72.5257C457.647 72.53 458.236 72.6946 459.036 73.3422L461.038 69.7857C460.186 68.8695 458.902 68.3528 457.562 68.3457C456.276 68.3389 455.039 68.869 454.336 70.0985ZM416.588 68.1538C412.755 68.1331 409.019 70.1512 408.993 75.059C408.967 79.8862 412.708 81.9988 416.514 82.0189C420.24 82.0391 424.083 79.9668 424.109 75.1396C424.135 70.3129 420.501 68.1749 416.588 68.1538ZM416.535 77.9688C414.793 77.9597 413.809 76.6132 413.817 75.0849C413.825 73.5566 414.824 72.1938 416.566 72.2029C418.308 72.212 419.293 73.5854 419.285 75.1137C419.277 76.7235 418.197 77.978 416.535 77.9688ZM382.288 77.7587C381.538 77.7549 381.004 77.4033 380.982 76.4645L381.005 72.1199L384.006 72.1357L384.026 68.3548L381.052 68.3389L381.072 64.5038L376.165 65.0142L376.147 68.313L374.03 68.3015L374.009 72.0825L376.127 72.094L376.104 76.4386C376.002 80.5957 378.354 81.815 380.98 81.829C382.347 81.8362 383.662 81.6011 384.791 80.9636L383.738 77.3107C383.334 77.5774 382.771 77.7616 382.288 77.7587ZM343.846 75.1132C343.837 76.8564 342.734 77.5745 341.555 77.5683C340.644 77.5635 339.709 76.9951 339.717 75.3593L339.757 68.0372L334.825 68.0108L334.786 75.3598C334.76 80.0795 337.138 81.5675 339.925 81.6097C341.318 81.6433 342.983 81.1699 344.115 79.8617L344.322 81.3109L348.691 81.3344L348.762 68.0857L343.884 68.0598L343.846 75.1132ZM303.733 69.2931L303.446 67.8434L299.024 67.8199L298.953 81.0686L303.884 81.095L303.921 74.2023C303.93 72.459 304.98 71.7136 306.213 71.7203C307.044 71.7246 307.633 71.8892 308.434 72.5368L310.435 68.9803C309.583 68.0641 308.299 67.5474 306.959 67.5402C305.673 67.5335 304.437 68.0636 303.733 69.2931Z" fill="#575756"/>
</svg>
