<svg width="227" height="39" viewBox="0 0 227 39" fill="none" xmlns="http://www.w3.org/2000/svg">
<path d="M7.03701 23.7575L9.43281 36.6258L19.6306 38.97L17.247 23.8124L7.03701 23.7575ZM43.6439 23.0599L29.2177 0.0754939L15.1846 0L29.6992 22.9849L43.6439 23.0599ZM0 22.8255L14.548 22.9037L21.6462 11.858L14.4109 0.400445L0 22.8255ZM25.2305 39L35.4527 36.7656L37.9852 23.9238L27.7752 23.8689L25.2305 39Z" fill="#EC1C24"/>
<path d="M120.909 8.16667L120.543 6.31084L114.909 6.28064L114.819 23.2396L121.102 23.2733L121.149 14.4506C121.16 12.219 122.497 11.2654 124.068 11.2739C125.127 11.2796 125.877 11.4893 126.896 12.3188L129.447 7.76644C128.361 6.59356 126.726 5.93249 125.018 5.9233C123.379 5.91433 121.805 6.59224 120.909 8.16667ZM88.4864 5.72702C83.9111 5.70251 79.0818 8.42269 79.049 14.6022C79.0161 20.7813 83.5091 23.4494 88.8357 23.4779C91.7379 23.4934 94.5087 22.5814 96.533 20.7041L93.4786 17.2202C92.3817 18.0377 90.9788 18.58 89.1351 18.5699C87.7692 18.5625 85.8266 17.8997 85.3906 16.3872L97.1703 16.4504C98.6402 9.76363 94.4615 5.75897 88.4864 5.72702ZM85.4463 12.3361C85.871 9.55772 91.4017 9.69076 91.5584 12.3689L85.4463 12.3361ZM181.205 8.45617C180.325 7.07824 178.656 6.24541 176.266 6.2325C171.349 6.20602 168.051 10.0337 168.024 15.0458C167.998 19.9896 170.745 23.54 175.694 23.8757C177.572 23.9886 179.828 23.4173 181.271 21.7774L181.534 23.598L187.339 23.6293L187.429 6.67036L181.522 6.63863L181.205 8.45617ZM177.633 18.8049C175.755 18.7949 174.26 17.4482 174.273 15.0793C174.285 12.7105 175.795 11.3455 177.673 11.3556C179.892 11.3676 181.148 12.8501 181.136 15.1162C181.125 17.1073 179.75 18.8163 177.633 18.8049ZM70.0843 5.66203C67.7625 5.64956 65.881 6.32615 64.4718 8.06951C63.6262 6.48568 61.9918 5.68741 60.2846 5.64365C58.5437 5.59988 56.6957 6.31127 55.6297 7.78132L55.1955 5.95963L49.9028 5.93118L49.8127 22.8901L56.0612 22.9236L56.1106 13.6202C56.1548 11.7667 57.2859 10.9149 58.3445 10.9205C59.471 10.9267 60.1166 11.5818 60.1061 13.539L60.056 22.9453L66.2362 22.9785L66.2858 13.6412C66.2956 11.7869 67.4265 11.0722 68.4847 11.0779C69.4066 11.0829 70.2223 11.8079 70.2127 13.5932L70.1627 22.9995L76.4451 23.0332L76.4954 13.5926C76.5254 7.96272 73.7377 5.68172 70.0843 5.66203ZM109.486 18.4049C108.529 18.3999 107.849 17.9493 107.821 16.7478L107.851 11.1866L111.675 11.2072L111.701 6.3662L107.911 6.34585L107.937 1.43701L101.685 2.08976L101.663 6.31215L98.9649 6.29771L98.9393 11.1387L101.637 11.1532L101.607 16.7143C101.476 22.0347 104.473 23.5956 107.819 23.6135C109.56 23.6229 111.235 23.3229 112.673 22.5072L111.332 17.8307C110.819 18.1714 110.1 18.4082 109.486 18.4049ZM160.494 18.5756C158.105 18.5627 156.85 16.9084 156.86 15.0547C156.871 12.926 158.178 11.182 160.568 11.1949C161.695 11.2011 162.649 11.584 163.463 12.4464L166.829 8.82598C165.063 7.03098 162.643 6.15963 160.219 6.1465C155.473 6.1209 150.746 8.80782 150.714 14.9874C150.68 21.338 155.31 23.8006 160.228 23.8271C162.754 23.8407 165.184 22.7897 167.208 20.9807L163.643 17.1852C162.785 18.1073 161.656 18.5817 160.494 18.5756ZM221.093 6.85133L220.776 8.66886C219.896 7.29094 218.227 6.4581 215.837 6.44519C210.92 6.41872 207.622 10.2464 207.595 15.2585C207.569 20.2023 210.316 23.7527 215.265 24.0884C217.143 24.2013 219.399 23.6299 220.842 21.9901L221.105 23.8107L226.91 23.842L227 6.88306L221.093 6.85133ZM217.204 19.0176C215.326 19.0075 213.831 17.6609 213.844 15.2922C213.856 12.9234 215.366 11.5584 217.244 11.5685C219.463 11.5803 220.719 13.063 220.707 15.3292C220.696 17.3198 219.321 19.029 217.204 19.0176ZM198.151 12.7705C197.127 12.7304 196.891 12.2486 196.892 11.9396C196.896 11.3216 197.511 11.1188 198.399 11.1236C199.765 11.0965 201.709 11.5877 202.627 12.1766L205.311 8.41459C203.679 7.16949 201.156 6.33228 198.424 6.31762C194.464 6.29639 190.632 7.75178 190.61 11.837C190.588 15.9567 194.542 17.3165 197.819 17.4375C199.048 17.5469 199.592 17.8244 199.589 18.3738C199.587 18.9229 199.005 19.1949 197.878 19.1887C196.513 19.1126 194.465 18.9642 191.913 17.2686L189.84 21.8575C191.744 23.2752 195.052 24.117 197.989 24.1328C202.052 24.1547 205.85 22.5958 205.872 18.4078C205.896 13.9105 201.668 12.8921 198.151 12.7705ZM139.289 6.03381C134.407 6.00755 129.647 8.5914 129.613 14.8738C129.581 21.0529 134.346 23.7562 139.195 23.7822C143.941 23.8078 148.838 21.1562 148.871 14.9773C148.904 8.79775 144.274 6.06072 139.289 6.03381ZM139.223 18.5986C137.004 18.5868 135.749 16.8633 135.76 14.9068C135.77 12.9499 137.043 11.2057 139.262 11.2177C141.481 11.2295 142.735 12.9873 142.725 14.9442C142.714 17.0042 141.34 18.61 139.223 18.5986Z" fill="#EC1C24"/>
<path d="M105.623 32.9288C105.258 32.9145 105.173 32.7428 105.174 32.6325C105.175 32.4123 105.395 32.3401 105.711 32.3419C106.198 32.3325 106.891 32.5075 107.218 32.7169L108.174 31.3764C107.593 30.9327 106.694 30.6344 105.72 30.6292C104.309 30.6215 102.943 31.1401 102.935 32.5962C102.927 34.0644 104.336 34.5491 105.504 34.5918C105.942 34.6308 106.136 34.7299 106.135 34.9253C106.134 35.1211 105.926 35.2181 105.525 35.2159C105.039 35.1888 104.309 35.1358 103.399 34.5314L102.66 36.1669C103.339 36.6719 104.518 36.9717 105.564 36.9774C107.012 36.9853 108.366 36.4299 108.374 34.9371C108.383 33.3349 106.876 32.9719 105.623 32.9288ZM88.943 30.539C88.3104 30.5232 87.5549 30.7392 87.0406 31.336L86.9468 30.6749L84.9635 30.6642L84.9312 36.7078L87.1458 36.7196L87.1627 33.5388C87.1669 32.7436 87.6677 32.3791 88.2033 32.3821C88.617 32.3843 89.0414 32.6436 89.0375 33.3898L89.0197 36.7299L91.2585 36.742L91.2764 33.39C91.2879 31.2364 90.2086 30.558 88.943 30.539ZM69.9636 30.4493C68.2238 30.4399 66.5275 31.3605 66.5155 33.5992C66.5038 35.8012 68.2022 36.7649 69.9301 36.7741C71.6216 36.7833 73.3666 35.838 73.3784 33.636C73.3902 31.434 71.7402 30.4587 69.9636 30.4493ZM69.9397 34.9266C69.1488 34.9224 68.7019 34.3082 68.7056 33.611C68.7093 32.9139 69.1629 32.2922 69.9536 32.2964C70.7445 32.3005 71.1915 32.927 71.1878 33.6242C71.1841 34.3585 70.6942 34.9308 69.9397 34.9266ZM53.2481 34.7881C52.3964 34.7835 51.9494 34.194 51.9529 33.5334C51.957 32.7747 52.4226 32.1535 53.2744 32.1581C53.676 32.1603 54.0159 32.2964 54.3062 32.6038L55.5057 31.3136C54.8763 30.6742 54.014 30.3637 53.1501 30.3591C51.4586 30.3499 49.7743 31.3075 49.7628 33.5095C49.7508 35.7726 51.4009 36.6503 53.1532 36.6597C54.0536 36.6645 54.9196 36.2899 55.6408 35.6454L54.3705 34.2927C54.0642 34.6213 53.6618 34.7903 53.2481 34.7881ZM123.24 35.2008C122.899 35.199 122.657 35.0386 122.647 34.6104L122.657 32.6285L124.02 32.6358L124.029 30.911L122.678 30.9038L122.688 29.1543L120.46 29.3871L120.451 30.892L119.49 30.8867L119.481 32.6115L120.442 32.6167L120.432 34.5986C120.385 36.4949 121.453 37.0512 122.646 37.0575C123.266 37.0608 123.863 36.9536 124.376 36.6627L123.898 34.9964C123.715 35.1179 123.459 35.2019 123.24 35.2008ZM224.765 31.4154L224.652 32.0635C224.338 31.5725 223.744 31.2756 222.892 31.2712C221.139 31.2618 219.964 32.6257 219.955 34.4117C219.945 36.1735 220.924 37.4389 222.688 37.5584C223.357 37.5989 224.161 37.3951 224.675 36.8107L224.769 37.4595L226.838 37.4706L226.87 31.427L224.765 31.4154ZM223.379 35.7511C222.71 35.7476 222.177 35.2675 222.181 34.4233C222.186 33.5791 222.724 33.0927 223.393 33.0962C224.184 33.1003 224.632 33.6292 224.627 34.4364C224.624 35.1461 224.134 35.7551 223.379 35.7511ZM206.269 31.9767L206.138 31.3154L204.131 31.3047L204.098 37.3483L206.337 37.3603L206.354 34.2161C206.358 33.4209 206.835 33.0808 207.394 33.0839C207.772 33.0859 208.039 33.1609 208.403 33.4563L209.311 31.834C208.924 31.416 208.341 31.1804 207.733 31.1771C207.149 31.174 206.588 31.4158 206.269 31.9767ZM189.131 31.0896C187.391 31.0802 185.695 32.0007 185.683 34.2395C185.671 36.4415 187.37 37.4052 189.097 37.4144C190.789 37.4236 192.534 36.4783 192.546 34.2763C192.557 32.0745 190.908 31.0992 189.131 31.0896ZM189.107 35.5669C188.316 35.5627 187.869 34.9485 187.873 34.2513C187.877 33.5542 188.33 32.9325 189.121 32.9366C189.912 32.9408 190.359 33.5673 190.356 34.2645C190.352 34.9988 189.862 35.571 189.107 35.5669ZM173.559 35.471C173.218 35.4693 172.976 35.3089 172.966 34.8807L172.976 32.8988L174.339 32.906L174.348 31.1812L172.998 31.174L173.007 29.4245L170.779 29.6574L170.771 31.1622L169.81 31.157L169.8 32.8817L170.762 32.887L170.751 34.8688C170.705 36.7651 171.773 37.3214 172.965 37.3277C173.586 37.331 174.183 37.2238 174.695 36.933L174.217 35.2667C174.034 35.3883 173.778 35.4723 173.559 35.471ZM156.106 34.2642C156.102 35.0594 155.601 35.387 155.066 35.3842C154.652 35.382 154.228 35.1227 154.232 34.3765L154.25 31.0364L152.011 31.0244L151.993 34.3767C151.981 36.5297 153.061 37.2085 154.326 37.2277C154.959 37.2431 155.714 37.0271 156.228 36.4304L156.323 37.0914L158.306 37.1021L158.338 31.0585L156.124 31.0467L156.106 34.2642ZM137.895 31.6093L137.765 30.948L135.757 30.9373L135.725 36.9809L137.964 36.9929L137.98 33.8487C137.984 33.0535 138.461 32.7134 139.021 32.7165C139.398 32.7185 139.666 32.7935 140.029 33.0889L140.938 31.4666C140.551 31.0486 139.968 30.813 139.36 30.8097C138.776 30.8066 138.214 31.0484 137.895 31.6093Z" fill="white"/>
</svg>
